<svg xmlns="http://www.w3.org/2000/svg" width="64" height="64" fill="none"><g stroke-miterlimit="10" stroke-width="2" clip-path="url(#a)"><path stroke="#006EF0" d="M12.577 27.056a5.746 5.746 0 1 0-11.1-2.974 5.746 5.746 0 0 0 11.1 2.974Z"/><path stroke="#4C5971" stroke-dasharray="2 2" stroke-linejoin="bevel" d="M19.268 52.03a5.746 5.746 0 1 0-11.1-2.975 5.746 5.746 0 0 0 11.1 2.975Z"/><path stroke="#006EF0" d="M62.523 40.44a5.746 5.746 0 1 0-11.1-2.974 5.746 5.746 0 0 0 11.1 2.974Z"/><path stroke="#FFFFFF" stroke-dasharray="2 2" stroke-linejoin="bevel" d="M55.832 15.466a5.746 5.746 0 1 0-11.1-2.974 5.746 5.746 0 0 0 11.1 2.974ZM15.204 44.996l8.617-32.16M49.036 19.583l-8.917 32.088"/><path stroke="#006EF0" d="M30.858 8.776a5.746 5.746 0 1 0-11.1-2.975 5.746 5.746 0 0 0 11.1 2.975ZM11.086 29.628l23.546 23.545M44.242 58.721a5.746 5.746 0 1 0-11.1-2.974 5.746 5.746 0 0 0 11.1 2.974ZM29.368 11.348l23.546 23.545M51.424 37.466l-38.848-10.41"/></g><defs><clipPath id="a"><path fill="#fff" d="M0 0h64v64H0z"/></clipPath></defs></svg>