<svg xmlns="http://www.w3.org/2000/svg" width="64" height="64" fill="none"><path stroke="#FFFFFF" stroke-dasharray="2 2" stroke-linejoin="bevel" stroke-miterlimit="10" stroke-width="2" d="m24.744 36.45-9.675 5.585M32 12.712v11.17M39.254 36.448l9.677 5.587"/><path stroke="#006EF0" stroke-miterlimit="10" stroke-width="2" d="M32 12.712A5.586 5.586 0 1 0 32 1.54a5.586 5.586 0 0 0 0 11.172Z"/><path stroke="#FFFFFF" stroke-dasharray="2 2" stroke-linejoin="bevel" stroke-miterlimit="10" stroke-width="2" d="M10.232 25.28a5.586 5.586 0 1 0 0-11.173 5.586 5.586 0 0 0 0 11.172Z"/><path stroke="#006EF0" stroke-miterlimit="10" stroke-width="2" d="M10.232 50.414a5.586 5.586 0 1 0 0-11.172 5.586 5.586 0 0 0 0 11.172Z"/><path stroke="#FFFFFF" stroke-dasharray="2 2" stroke-linejoin="bevel" stroke-miterlimit="10" stroke-width="2" d="M32 62.981a5.586 5.586 0 1 0 0-11.171 5.586 5.586 0 0 0 0 11.171Z"/><path stroke="#006EF0" stroke-miterlimit="10" stroke-width="2" d="M32 40.638a8.378 8.378 0 1 0 0-16.755 8.378 8.378 0 0 0 0 16.755ZM53.768 50.414a5.586 5.586 0 1 0 0-11.172 5.586 5.586 0 0 0 0 11.172Z"/><path stroke="#FFFFFF" stroke-dasharray="2 2" stroke-linejoin="bevel" stroke-miterlimit="10" stroke-width="2" d="M53.768 25.28a5.586 5.586 0 1 0 0-11.173 5.586 5.586 0 0 0 0 11.172Z"/><path stroke="#006EF0" stroke-miterlimit="10" stroke-width="2" d="m48.93 22.486-9.675 5.586M32 40.639v11.17M15.07 22.486l9.676 5.586"/></svg>