<svg xmlns="http://www.w3.org/2000/svg" width="64" height="64" fill="none"><path stroke="#006EF0" stroke-miterlimit="10" stroke-width="2" d="M6.866 37.846a5.586 5.586 0 1 0 0-11.172 5.586 5.586 0 0 0 0 11.172Zm12.567 21.767a5.586 5.586 0 1 0 0-11.172 5.586 5.586 0 0 0 0 11.172Z"/><path stroke="#FFFFFF" stroke-dasharray="2 2" stroke-linejoin="bevel" stroke-miterlimit="10" stroke-width="2" d="m22.226 49.19 5.586-9.675"/><path stroke="#006EF0" stroke-miterlimit="10" stroke-width="2" d="M44.567 59.613a5.586 5.586 0 1 0 0-11.172 5.586 5.586 0 0 0 0 11.172Z"/><path stroke="#FFFFFF" stroke-dasharray="2 2" stroke-linejoin="bevel" stroke-miterlimit="10" stroke-width="2" d="m47.36 49.19 6.984-12.096M22.226 15.33l5.586 9.674m12.566 7.256 11.172.001"/><path stroke="#006EF0" stroke-miterlimit="10" stroke-width="2" d="M57.134 37.847a5.586 5.586 0 1 0 0-11.172 5.586 5.586 0 0 0 0 11.172Z"/><path stroke="#FFFFFF" stroke-dasharray="2 2" stroke-linejoin="bevel" stroke-miterlimit="10" stroke-width="2" d="M38.986 10.493H25.02"/><path stroke="#006EF0" stroke-miterlimit="10" stroke-width="2" d="M32 40.637a8.378 8.378 0 1 0 0-16.755 8.378 8.378 0 0 0 0 16.755ZM44.567 16.08a5.586 5.586 0 1 0 0-11.173 5.586 5.586 0 0 0 0 11.172Zm-25.134 0a5.586 5.586 0 1 0 0-11.173 5.586 5.586 0 0 0 0 11.172Z"/><path stroke="#FFFFFF" stroke-dasharray="2 2" stroke-linejoin="bevel" stroke-miterlimit="10" stroke-width="2" d="m9.656 37.094 6.985 12.097"/><path stroke="#006EF0" stroke-miterlimit="10" stroke-width="2" d="m36.19 39.516 5.584 9.674M12.45 32.26h11.172m12.566-7.253 5.586-9.677m12.568 12.094-6.985-12.098M25.015 54.027h13.971M16.64 15.33 9.656 27.426"/></svg>